<svg>
    <defs>
        <symbol id="search">
     	<path d="M79.4,76.6L65.6,63c4.2-4.6,6.8-10.6,6.8-17.3C72.4,31.5,60.6,20,46.2,20C31.7,20,20,31.5,20,45.8
		C20,60,31.7,71.5,46.2,71.5c6.2,0,12-2.2,16.5-5.8l13.9,13.6c0.8,0.8,2.1,0.8,2.8,0C80.2,78.6,80.2,77.4,79.4,76.6z M46.2,67.6
		C33.9,67.6,24,57.8,24,45.8c0-12,9.9-21.8,22.2-21.8c12.2,0,22.2,9.8,22.2,21.8C68.3,57.8,58.4,67.6,46.2,67.6z"/>
        </symbol>
        <symbol id="social">
            <path d="M68.8,60.5c-3.6,0-6.8,1.7-8.9,4.3L41.7,54.3c1.1-2.8,1.1-5.8,0-8.6l18.2-10.6c2,2.6,5.3,4.3,8.9,4.3
            c6.2,0,11.3-5,11.3-11.2S75,17,68.8,17s-11.3,5-11.3,11.2c0,1.5,0.3,3,0.8,4.3L40.1,43.1c-2.1-2.6-5.2-4.3-8.8-4.3
            C25,38.8,20,43.8,20,50s5,11.2,11.2,11.2c3.6,0,6.8-1.7,8.8-4.3l18.2,10.6c-0.5,1.3-0.8,2.8-0.8,4.3c0,6.2,5,11.2,11.3,11.2
            S80,78,80,71.8C80,65.6,75,60.5,68.8,60.5z M68.8,20.1c4.6,0,8.3,3.7,8.3,8.2c0,4.6-3.7,8.2-8.3,8.2c-4.6,0-8.3-3.7-8.3-8.2
            C60.5,23.7,64.2,20.1,68.8,20.1z M31.2,58.3c-4.6,0-8.3-3.7-8.3-8.2c0-4.6,3.7-8.2,8.3-8.2c4.6,0,8.3,3.7,8.3,8.2
            C39.5,54.6,35.8,58.3,31.2,58.3z M68.8,80c-4.6,0-8.3-3.7-8.3-8.2s3.7-8.2,8.3-8.2c4.6,0,8.3,3.7,8.3,8.2S73.3,80,68.8,80z"/> 
        </symbol>
        
        <symbol id="facebook">
			<path d="M20,10c0-5.5-4.5-10-10-10S0,4.5,0,10s4.5,10,10,10S20,15.5,20,10z M0.9,10C0.9,5,5,0.9,10,0.9S19.1,5,19.1,10
			S15,19.1,10,19.1S0.9,15,0.9,10z"/>
		<path d="M10.4,15.8V10h1.9l0.3-1.9h-2.2v-1c0-0.5,0.2-1,0.9-1h1.4V4.2h-2C9,4.2,8.5,5.3,8.5,6.9v1.2H7.3V10h1.2v5.8L10.4,15.8
			L10.4,15.8z"/>
        </symbol>
		<symbol id="pinterest">
			<path d="M10,20C4.5,20,0,15.5,0,10S4.5,0,10,0s10,4.5,10,10S15.5,20,10,20z M10,1.1c-4.9,0-8.9,4-8.9,8.9
			s4,8.9,8.9,8.9c4.9,0,8.9-4,8.9-8.9S14.9,1.1,10,1.1z"/>
			<path d="M8.2,16.1c0,0-0.1,0-0.2,0c-0.3-0.1-0.5-0.4-0.5-0.8l1.5-6C9.1,9,9.5,8.8,9.8,8.9
			c0.3,0.1,0.5,0.4,0.5,0.8c-0.1,0.3-0.2,1.5,0.2,2c0.1,0.1,0.3,0.3,0.7,0.3c0.9,0,1.9-1.5,1.9-2.9c0-0.5-0.1-1.1-0.6-1.6
			c-0.5-0.5-1.2-0.7-2.2-0.7C7.6,6.6,7.1,8.3,7,8.8c-0.1,0.8,0.1,1.6,0.6,1.8C7.9,10.7,8.1,11,8,11.4c-0.1,0.3-0.5,0.5-0.8,0.4
			C6.1,11.3,5.5,10,5.7,8.6C6,7.1,7.3,5.4,10.2,5.4c1.4,0,2.4,0.4,3.1,1.1c0.6,0.6,1,1.5,1,2.5c0,2-1.3,4.2-3.2,4.2
			c-0.8,0-1.3-0.3-1.6-0.6l-0.8,3.1C8.7,15.9,8.5,16.1,8.2,16.1z"/>
		</symbol>
        <symbol id="twitter">
            <path d="M10,0C4.5,0,0,4.5,0,10s4.5,10,10,10s10-4.5,10-10S15.5,0,10,0z M10,18.9c-4.9,0-8.9-4-8.9-8.9s4-8.9,8.9-8.9
		s8.9,4,8.9,8.9S14.9,18.9,10,18.9z"/>
			<path d="M12,8.4c0.3,0,0.6-0.3,0.6-0.6c0-0.3-0.3-0.6-0.6-0.6H8.6V6.7c0-0.3-0.3-0.6-0.6-0.6c-0.3,0-0.6,0.3-0.6,0.6
		v3.8c0,1.9,1.5,3.4,3.4,3.4H12c0.3,0,0.6-0.3,0.6-0.6s-0.3-0.6-0.6-0.6h-1.2c-1.2,0-2.2-1-2.2-2.2V8.4H12z"/>
        </symbol>
        <symbol id="you-tube">
			<path d="M7,15.1c-0.1,0-0.1,0-0.2-0.1c-0.1-0.1-0.2-0.2-0.2-0.4V5.4c0-0.1,0.1-0.3,0.2-0.4C6.9,4.9,7,4.9,7.2,5l8,4.6
			c0.1,0.1,0.2,0.2,0.2,0.4c0,0.1-0.1,0.3-0.2,0.4l-8,4.6C7.1,15,7,15.1,7,15.1z M7.4,6.1v7.9l6.8-3.9L7.4,6.1z"/>
			<path d="M10,20c-2.7,0-5.2-1-7.1-2.9C1,15.2,0,12.7,0,10s1-5.2,2.9-7.1C4.8,1,7.3,0,10,0c2.7,0,5.2,1,7.1,2.9S20,7.3,20,10
			s-1,5.2-2.9,7.1C15.2,19,12.7,20,10,20z M10,0.8c-2.5,0-4.8,1-6.5,2.7c-1.7,1.7-2.7,4-2.7,6.5s1,4.8,2.7,6.5
			c1.7,1.7,4,2.7,6.5,2.7c2.5,0,4.8-1,6.5-2.7c1.7-1.7,2.7-4,2.7-6.5s-1-4.8-2.7-6.5C14.8,1.8,12.5,0.8,10,0.8z"/>
        </symbol>
        <symbol id="play">
         	<path id="XMLID_1_" d="M18.8,9.6L1.7,0.1C1.5,0,1.3,0,1.2,0.1C1,0.1,0.9,0.3,0.9,0.5v19c0,0.2,0.1,0.4,0.2,0.5
		c0.1,0.1,0.3,0.1,0.5,0l17.1-9.5c0.2-0.1,0.3-0.2,0.3-0.4C19.1,9.8,19,9.7,18.8,9.6z"/>
        </symbol>
		<symbol id="circle_play">
         	<path d="M10,0C4.5,0,0,4.5,0,10c0,5.5,4.5,10,10,10c5.5,0,10-4.5,10-10C20,4.5,15.5,0,10,0z M10,18.7
					c-4.8,0-8.7-3.9-8.7-8.7S5.2,1.3,10,1.3s8.7,3.9,8.7,8.7S14.8,18.7,10,18.7z"/>
			<path class="st0" d="M14.4,9.6L9.3,5.5c-0.3-0.2-0.8-0.2-1,0l0,0C8.1,5.6,8,5.7,8,5.9v8.1c0,0.2,0.1,0.3,0.2,0.4
					l0,0c0.3,0.2,0.8,0.2,1,0l5.2-4.1C14.7,10.2,14.7,9.8,14.4,9.6L14.4,9.6z"/>
        </symbol>
        <symbol id="gallery">
			<path d="M50,41.5c-6.1,0-11.1,5-11.1,11.2c0,6.2,5,11.2,11.1,11.2c6.1,0,11.1-5,11.1-11.2
		C61.1,46.5,56.1,41.5,50,41.5z M50,61.6c-4.9,0-8.9-4-8.9-8.9s4-8.9,8.9-8.9c4.9,0,8.9,4,8.9,8.9S54.9,61.6,50,61.6z M64.7,34.8
		l-2.9-7.6H38.2l-2.9,7.6H21.5v38h56.9v-38H64.7z M76.2,70.6H23.8V37h13.2l2.9-7.6h20.4l2.9,7.6h13.1V70.6z"/>
        </symbol>
        <symbol id="bar">
    		<path d="M0,16.7h20v-2.2H0V16.7z M0,11.1h20V8.9H0V11.1z M0,3.3v2.2h20V3.3H0z"/>
        </symbol>
		<symbol id="double_left">
    		<path d="M10.9,17.6c0.5,0.5,0.5,1.4,0,2c-0.5,0.5-1.4,0.5-2,0L0.4,11C0.1,10.7,0,10.4,0,10c0-0.4,0.1-0.7,0.4-1
		L9,0.5c0.5-0.5,1.4-0.5,2,0c0.5,0.5,0.5,1.4,0,2L3.4,10L10.9,17.6z M12,10l7.6-7.6c0.5-0.5,0.5-1.4,0-2c-0.5-0.5-1.4-0.5-2,0L9.1,9
		c-0.3,0.3-0.4,0.6-0.4,1c0,0.4,0.1,0.7,0.4,1l8.5,8.5c0.5,0.5,1.4,0.5,2,0c0.5-0.5,0.5-1.4,0-2L12,10z"/>
        </symbol>
		<symbol id="left_arrow">
    		<polygon points="15,20 4.7,10 15,0 15.5,0.5 5.8,10 15.5,19.5"/>
        </symbol>
		<symbol id="right_arrow">
    		<polygon id="XMLID_1_" class="st0" points="5.2,0 15.5,10 5.2,20 4.7,19.5 14.4,10 4.7,0.5"/>
        </symbol>
		<symbol id="plus">
    		<polygon points="20,9.4 10.6,9.4 10.6,0 9.4,0 9.4,9.4 0,9.4 0,10.6 9.4,10.6 9.4,20 10.6,20 10.6,10.6 20,10.6"/>
        </symbol>
		<symbol id="time">
			<path d="M18.3,18.3H1.7V1.7h16.7L18.3,18.3L18.3,18.3z M19.2,0H0.8C0.4,0,0,0.4,0,0.8v18.3C0,19.6,0.4,20,0.8,20h18.3
			c0.5,0,0.8-0.4,0.8-0.8V0.8C20,0.4,19.6,0,19.2,0z"/>
			<path d="M10,10.8h3.5c0.5,0,0.8-0.4,0.8-0.8s-0.4-0.8-0.8-0.8h-2.6V4.3c0-0.5-0.4-0.8-0.8-0.8S9.2,3.8,9.2,4.3V10
			C9.2,10.5,9.5,10.8,10,10.8L10,10.8z"/>
		</symbol>
        <symbol id="sarmady">
            <path d="M50.5,11.2"/>
            <circle cx="17.1" cy="11.2" r="1.7"/>
            <circle cx="14.6" cy="13.7" r="1.6"/>
            <circle cx="11.9" cy="16" r="1.4"/>
            <circle cx="8.5" cy="16.4" r="1.3"/>
            <circle cx="5.5" cy="14.7" r="1.2"/>
            <circle cx="4.3" cy="11.5" r="1"/>
            <circle cx="5.2" cy="8.2" r="0.9"/>
            <circle cx="8" cy="6.1" r="0.8"/>
            <circle cx="11.5" cy="6.3" r="0.6"/>
            <circle cx="14.3" cy="8.4" r="0.5"/>
            <circle cx="17.1" cy="11.3" r="1.7"/>
            <circle cx="19.5" cy="8.8" r="1.6"/>
            <circle cx="22.2" cy="6.5" r="1.4"/>
            <circle cx="25.6" cy="6.1" r="1.3"/>
            <circle cx="28.6" cy="7.8" r="1.2"/>
            <circle cx="29.8" cy="11" r="1"/>
            <circle cx="28.9" cy="14.3" r="0.9"/>
            <circle cx="26.1" cy="16.3" r="0.8"/>
            <circle cx="22.6" cy="16.2" r="0.6"/>
            <circle cx="19.9" cy="14.1" r="0.5"/>
        <path d="M48.3,6.7V6.4h2.6v7.8h-2.6v-0.3c-0.5,0.3-1.1,0.5-1.7,0.5c-2.2,0-3.7-1.9-3.7-4.1c0-2.1,1.4-4.1,3.7-4.1
            C47.1,6.2,47.7,6.4,48.3,6.7z M45.8,9.1c-0.3,0.3-0.4,0.7-0.4,1.2c0,0.9,0.5,1.7,1.5,1.7c1,0,1.5-0.7,1.5-1.7
            c0-0.9-0.6-1.6-1.5-1.6C46.4,8.6,46.1,8.8,45.8,9.1z"/>
        <path d="M60.4,6.4v0.3c0.5-0.3,1.2-0.5,1.8-0.5c0.8,0,1.6,0.3,2.1,1c0.6-0.6,1.4-1,2.3-1c2.2,0,2.8,1.6,2.8,3.5v4.5h-2.6v-3.9
            c0-0.6,0.1-1.6-0.8-1.6c-1.1,0-1.1,1.2-1.1,2v3.5h-2.6v-3.8c0-0.6,0.1-1.8-0.8-1.8c-1.1,0-1.1,1.3-1.1,2v3.5h-2.6V6.4H60.4z"/>
        <path d="M75.6,6.7V6.4h2.6v7.8h-2.6v-0.3c-0.5,0.3-1.1,0.5-1.7,0.5c-2.2,0-3.7-1.9-3.7-4.1c0-2.1,1.4-4.1,3.7-4.1
            C74.4,6.2,75.1,6.4,75.6,6.7z M73.1,9.1c-0.3,0.3-0.4,0.7-0.4,1.2c0,0.9,0.5,1.7,1.5,1.7c1,0,1.5-0.7,1.5-1.7
            c0-0.9-0.6-1.6-1.5-1.6C73.7,8.6,73.4,8.8,73.1,9.1z"/>
        <path d="M87.1,3.7v10.5h-2.6v-0.3c-0.5,0.3-1.1,0.5-1.7,0.5c-2.2,0-3.7-1.9-3.7-4.1c0-2.1,1.4-4.1,3.7-4.1c0.6,0,1.2,0.2,1.8,0.5
            v-3H87.1z M82,9.1c-0.3,0.3-0.4,0.7-0.4,1.2c0,0.9,0.5,1.7,1.5,1.7c1,0,1.5-0.7,1.5-1.7c0-0.9-0.6-1.6-1.5-1.6
            C82.6,8.6,82.3,8.8,82,9.1z"/>
        <path d="M90.8,6.4l1.5,3.7l1.7-3.7h2.7l-4.7,10.3h-2.7l1.6-3.5l-2.8-6.9H90.8z"/>
        <path d="M40.1,7.3c-0.4-0.4-1-1.1-1.7-1.1c-0.2,0-0.6,0-0.6,0.3c0,0.2,0.6,0.5,0.7,0.5l0.9,0.4c1.5,0.7,2.7,1.6,2.7,3.4
            c0,2.2-1.8,3.4-3.8,3.4c-1.7,0-2.8-0.7-3.8-2l1.9-2.1c0.5,0.6,1.2,1.3,2,1.3c0.2,0,0.8-0.1,0.8-0.4c0-0.2-0.2-0.4-0.9-0.8
            l-0.8-0.4c-1.6-0.8-2.5-1.9-2.5-3.3c0-1.9,1.7-3.1,3.5-3.1c1.6,0,2.7,0.7,3.6,2L40.1,7.3z"/>
        <path d="M52.1,14.2V6.4h2.5v0.9c0.3-0.3,0.6-0.6,1-0.7c0.3-0.2,0.8-0.2,1.2-0.2l0,3c-0.2-0.1-0.7-0.1-0.9,0
            c-0.2,0-0.3,0.1-0.4,0.1c-0.4,0.2-0.6,0.4-0.7,0.7c-0.1,0.3-0.1,0.9-0.1,0.9v3.1H52.1z"/>
            <path d="M37.4,16H38v2.3h-0.6V18c-0.1,0.1-0.2,0.2-0.3,0.2c-0.1,0-0.2,0.1-0.4,0.1c-0.3,0-0.5-0.1-0.8-0.3
                c-0.2-0.2-0.3-0.5-0.3-0.8c0-0.3,0.1-0.6,0.3-0.9c0.2-0.2,0.5-0.3,0.8-0.3c0.1,0,0.3,0,0.4,0.1c0.1,0.1,0.2,0.1,0.3,0.2V16z
                 M36.8,16.5c-0.2,0-0.3,0.1-0.4,0.2c-0.1,0.1-0.2,0.3-0.2,0.5c0,0.2,0.1,0.4,0.2,0.5c0.1,0.1,0.3,0.2,0.4,0.2
                c0.2,0,0.3-0.1,0.4-0.2c0.1-0.1,0.2-0.3,0.2-0.5c0-0.2-0.1-0.4-0.2-0.5C37.2,16.5,37,16.5,36.8,16.5z"/>
            <path d="M62.1,16.5l-0.5,0.3c-0.1-0.1-0.2-0.2-0.3-0.2c-0.1,0-0.2-0.1-0.3-0.1c-0.2,0-0.4,0.1-0.5,0.2c-0.1,0.1-0.2,0.3-0.2,0.5
                c0,0.2,0.1,0.3,0.2,0.5c0.1,0.1,0.3,0.2,0.5,0.2c0.3,0,0.5-0.1,0.6-0.3l0.4,0.3c-0.2,0.3-0.6,0.5-1,0.5c-0.4,0-0.7-0.1-0.9-0.4
                c-0.2-0.2-0.3-0.5-0.3-0.8c0-0.2,0.1-0.4,0.2-0.6c0.1-0.2,0.3-0.3,0.5-0.4c0.2-0.1,0.4-0.2,0.7-0.2c0.2,0,0.4,0,0.6,0.1
                C61.9,16.2,62,16.3,62.1,16.5z"/>
            <path d="M63.9,16c0.2,0,0.4,0.1,0.6,0.2c0.2,0.1,0.3,0.3,0.4,0.4c0.1,0.2,0.2,0.4,0.2,0.6c0,0.2-0.1,0.4-0.2,0.6
                c-0.1,0.2-0.3,0.3-0.4,0.4c-0.2,0.1-0.4,0.2-0.6,0.2c-0.3,0-0.6-0.1-0.8-0.3c-0.2-0.2-0.3-0.5-0.3-0.8c0-0.4,0.1-0.6,0.4-0.9
                C63.3,16.1,63.6,16,63.9,16z M63.9,16.5c-0.2,0-0.3,0.1-0.4,0.2c-0.1,0.1-0.2,0.3-0.2,0.5c0,0.2,0.1,0.4,0.2,0.5
                c0.1,0.1,0.3,0.2,0.4,0.2c0.2,0,0.3-0.1,0.4-0.2c0.1-0.1,0.2-0.3,0.2-0.5c0-0.2-0.1-0.4-0.2-0.5C64.2,16.6,64.1,16.5,63.9,16.5z"
                />
            <path d="M65.8,16h0.6v0.3c0.1-0.1,0.2-0.2,0.3-0.2c0.1-0.1,0.2-0.1,0.4-0.1c0.1,0,0.3,0,0.4,0.1c0.1,0.1,0.2,0.2,0.3,0.3
                c0.1-0.1,0.2-0.2,0.3-0.3c0.1-0.1,0.3-0.1,0.4-0.1c0.2,0,0.3,0,0.4,0.1c0.1,0.1,0.2,0.2,0.3,0.3c0.1,0.1,0.1,0.3,0.1,0.6v1.3
                h-0.6v-1.1c0-0.3,0-0.4-0.1-0.5c-0.1-0.1-0.2-0.1-0.3-0.1c-0.1,0-0.2,0-0.3,0.1c-0.1,0.1-0.1,0.1-0.2,0.2c0,0.1-0.1,0.3-0.1,0.5
                v1h-0.6v-1.1c0-0.2,0-0.3,0-0.4c0-0.1-0.1-0.2-0.1-0.2c-0.1,0-0.1-0.1-0.2-0.1c-0.1,0-0.2,0-0.3,0.1c-0.1,0.1-0.1,0.1-0.2,0.2
                c0,0.1-0.1,0.3-0.1,0.5v1h-0.6V16z"/>
            <path d="M70.6,16v0.2c0.1-0.1,0.2-0.2,0.3-0.2C71,16,71.2,16,71.3,16c0.3,0,0.5,0.1,0.8,0.3c0.2,0.2,0.3,0.5,0.3,0.9
                c0,0.3-0.1,0.6-0.3,0.8c-0.2,0.2-0.5,0.3-0.8,0.3c-0.1,0-0.3,0-0.4-0.1c-0.1,0-0.2-0.1-0.3-0.2v1.1H70V16H70.6z M71.2,16.5
                c-0.2,0-0.3,0.1-0.4,0.2c-0.1,0.1-0.2,0.3-0.2,0.5c0,0.2,0.1,0.4,0.2,0.5c0.1,0.1,0.3,0.2,0.4,0.2c0.2,0,0.3-0.1,0.4-0.2
                c0.1-0.1,0.2-0.3,0.2-0.5c0-0.2-0.1-0.4-0.2-0.5C71.5,16.5,71.3,16.5,71.2,16.5z"/>
            <path d="M74.7,16h0.6v2.3h-0.6V18c-0.1,0.1-0.2,0.2-0.3,0.2c-0.1,0-0.2,0.1-0.4,0.1c-0.3,0-0.5-0.1-0.8-0.3
                c-0.2-0.2-0.3-0.5-0.3-0.8c0-0.3,0.1-0.6,0.3-0.9c0.2-0.2,0.5-0.3,0.8-0.3c0.1,0,0.3,0,0.4,0.1c0.1,0.1,0.2,0.1,0.3,0.2V16z
                 M74.1,16.5c-0.2,0-0.3,0.1-0.4,0.2c-0.1,0.1-0.2,0.3-0.2,0.5c0,0.2,0.1,0.4,0.2,0.5c0.1,0.1,0.3,0.2,0.4,0.2
                c0.2,0,0.3-0.1,0.4-0.2c0.1-0.1,0.2-0.3,0.2-0.5c0-0.2-0.1-0.4-0.2-0.5C74.5,16.5,74.3,16.5,74.1,16.5z"/>
            <path d="M76.1,16h0.6v0.2c0.1-0.1,0.2-0.2,0.4-0.2c0.1,0,0.2-0.1,0.3-0.1c0.2,0,0.4,0.1,0.6,0.2c0.1,0.1,0.2,0.3,0.2,0.6v1.5
                h-0.6v-1c0-0.3,0-0.4,0-0.5c0-0.1-0.1-0.2-0.1-0.2c-0.1,0-0.1-0.1-0.2-0.1c-0.1,0-0.2,0-0.3,0.1c-0.1,0.1-0.1,0.2-0.2,0.3
                c0,0.1,0,0.2,0,0.5v0.9h-0.6V16z"/>
            <polygon points="78.6,16 79.2,16 79.8,17.4 80.4,16 81,16 79.6,19.1 79,19.1 79.5,18.1            "/>
        <path fill-rule="evenodd" clip-rule="evenodd" d="M57.6,16.9c0-0.2-0.2-0.4-0.5-0.4c-0.2,0-0.4,0.1-0.5,0.4H57.6z M57.3,17.8
            c0.6,0,0.8-0.1,0.8-0.1v0.4c0,0-0.3,0.2-0.9,0.2c-0.4,0-1.2-0.2-1.2-1.2c0-0.7,0.4-1.2,1.1-1.2c0.8,0,1,0.7,1,1c0,0.2,0,0.4,0,0.4
            h-1.5C56.8,17.7,57,17.8,57.3,17.8z M55.8,16.9v1.4h-0.6V17c0-0.3-0.2-0.5-0.5-0.5c-0.2,0-0.4,0.1-0.4,0.1v1.7h-0.6v-2.1
            c0,0,0.5-0.2,1-0.2C55.5,16,55.8,16.4,55.8,16.9z M51.6,17.2c0-0.4,0.2-0.7,0.5-0.7c0.3,0,0.5,0.3,0.5,0.7c0,0.4-0.2,0.7-0.5,0.7
            C51.9,17.8,51.6,17.5,51.6,17.2z M50.9,16v0.5h-0.6v1.7h-0.6v-2.4c0-0.3,0.1-0.8,0.8-0.8c0.2,0,0.5,0,0.5,0v0.5
            c0,0-0.6-0.2-0.6,0.2V16H50.9z M51,17.2c0-0.6,0.5-1.2,1.2-1.2c0.6,0,1.2,0.5,1.2,1.2c0,0.6-0.5,1.2-1.2,1.2
            C51.5,18.3,51,17.8,51,17.2z M48.8,18.1c-0.1,0.1-0.3,0.3-0.6,0.3c-0.6,0-1.1-0.3-1.1-1.2c0-0.6,0.5-1.2,1.2-1.2
            c0.6,0,1,0.2,1,0.2l0,2.1h-0.6L48.8,18.1z M46.8,18.2c0,0-0.4,0.1-1,0.1c-0.6,0-1.2-0.4-1.2-1.2c0-0.8,0.5-1.2,1.2-1.2
            c0.2,0,0.3,0,0.4,0.1v-0.9h0.6V18.2z M48.7,17.6c-0.1,0.1-0.3,0.2-0.4,0.2c-0.3,0-0.5-0.2-0.5-0.7c0-0.4,0.3-0.6,0.6-0.6
            c0.2,0,0.3,0,0.3,0V17.6z M39.5,16h0.7l0.5,1.4l0.5-1.4H42l-0.9,2.2h-0.6L39.5,16z M46.2,17.8c-0.1,0-0.2,0-0.4,0
            c-0.3,0-0.6-0.3-0.6-0.7c0-0.4,0.2-0.7,0.5-0.7c0.2,0,0.3,0.1,0.4,0.1V17.8z M42.7,17.2c0-0.4,0.2-0.7,0.5-0.7
            c0.3,0,0.5,0.3,0.5,0.7c0,0.4-0.2,0.7-0.5,0.7C42.9,17.8,42.7,17.5,42.7,17.2z M42,17.2c0-0.6,0.5-1.2,1.2-1.2
            c0.6,0,1.2,0.5,1.2,1.2c0,0.6-0.5,1.2-1.2,1.2C42.5,18.3,42,17.8,42,17.2z"/>
        </symbol>
        
        <symbol id="has-dd">
            <path fill-rule="evenodd" clip-rule="evenodd" d="M8.9,15L50,65.5L91.1,15v19.5L50,85L8.9,34.5V15z"/>
        </symbol>
        <symbol id="more">
            <path fill-rule="evenodd" clip-rule="evenodd" d="M12,20L2.3,10L12,0H9.7L0,10l9.7,10H12z"/>
        </symbol>
    </defs>
</svg>






